<svg version="1.1" id="layer" xmlns="http://www.w3.org/2000/svg"
     xmlns:xlink="http://www.w3.org/1999/xlink" x="0px" y="0px"
     style="enable-background:new -153 -46 652 652;" xml:space="preserve"
     viewBox="-131.7 204.2 599.81 140.6">
<style type="text/css">
	.st0{fill:#EE2629;}
</style>
  <path class="st0" d="M117.9,255.3v-18.8h12.7c6.5,0,10.4,3.6,10.4,9.4c0,5.7-4,9.4-10.4,9.4C130.6,255.3,117.9,255.3,117.9,255.3z
	 M117.9,213.2h12.3c5.6,0,9.2,2.9,9.2,7.9c0,5-3.5,7.9-9.2,7.9h-12.3V213.2z M150,246.1c0-6-3.3-11.3-9.2-13.5
	c4.7-2.2,7.5-6.3,7.5-11.7c0-10.8-7.7-15.5-18.2-15.5h-20.7v57.7h21.6C142.1,263.1,150,256.9,150,246.1 M181.7,215.7l7.1,24.5h-14.2
	C174.6,240.2,181.7,215.7,181.7,215.7z M190.7,247.2l4.2,15.9h9l-16.1-57.7h-11.5l-16.1,57.7h8.5l4.2-15.9L190.7,247.2 M246.3,258.8
	c2.9-2.8,4.5-6.7,4.5-11.3c0-2.3-0.4-4.6-1.3-6.6c-2.3-5.3-8-8-13.2-10.4c-5.6-2.6-9.1-4-10.8-6.3c-1.1-1.4-1.4-2.9-1.4-4.6
	c0-4.6,3.7-7.6,8.6-7.6c5.1,0,8.2,2.8,8.7,7.7h8.5c-0.2-4.3-1.6-7.8-4.1-10.4c-3-3.1-7.6-4.8-13-4.8c-5.4,0-10,1.7-13.2,4.9
	c-2.8,2.8-4.3,6.7-4.3,10.8c0,2.7,0.5,5.1,1.6,7.2c2.3,4.2,6.4,6.3,11.3,8.4c5.8,2.4,10.4,4.4,12.5,8.2c0.7,1.2,1,2.5,1,3.9
	c0,4.7-3.8,8.5-9.6,8.5c-5.7,0-9.2-3.2-9.5-8.8h-8.6c0.3,5.2,1.9,9.2,4.9,12.1c3,2.9,7.7,4.3,13.1,4.3
	C238.1,263.9,243.1,262,246.3,258.8 M301.6,255.3h-27v-18.5h22.4V229h-22.4v-15.8h26.1v-7.8h-34.6v57.7h35.6V255.3 M356.9,255.3
	h-29.6v-49.9h-8.6v57.7h38.2V255.3 M-123.1,282h-8.6v57.7h38.2v-7.8h-29.6V282 M-71,316.8l7.1-24.5l7.1,24.5
	C-56.8,316.8-71,316.8-71,316.8z M-69.3,282l-16.1,57.7h8.5l4.2-15.9H-55l4.2,15.9h9L-57.8,282H-69.3 M0.1,321.2L-19.7,282h-9.5
	v57.7h8.2V299l20.5,40.7h8.8V282H0.1V321.2 M95.8,307.2c-5.6-2.6-9.1-4-10.8-6.3c-1.1-1.4-1.4-2.9-1.4-4.6c0-4.6,3.7-7.6,8.5-7.6
	c5.1,0,8.2,2.8,8.7,7.7h8.5c-0.2-4.3-1.6-7.8-4.1-10.4c-3-3.1-7.6-4.8-13-4.8c-5.4,0-10,1.7-13.2,4.9c-2.8,2.8-4.3,6.7-4.3,10.8
	c0,2.7,0.5,5.1,1.6,7.2c2.3,4.2,6.4,6.3,11.3,8.4c5.8,2.4,10.4,4.4,12.5,8.2c0.7,1.2,1,2.5,1,3.9c0,4.7-3.8,8.5-9.6,8.5
	c-5.7,0-9.2-3.2-9.5-8.8h-8.6c0.3,5.2,1.9,9.2,4.9,12.1c3,2.8,7.7,4.3,13.1,4.3c6,0,10.9-1.9,14.2-5.1c2.9-2.9,4.5-6.7,4.5-11.3
	c0-2.3-0.4-4.6-1.3-6.6C106.6,312.3,100.9,309.6,95.8,307.2 M201,305.6h-18.8V282h-8.6v57.7h8.6v-26.2H201v26.2h8.6V282H201V305.6
	 M236.7,316.8l7.1-24.5l7.1,24.5H236.7z M238.3,282l-16.1,57.7h8.5l4.2-15.9h17.7l4.2,15.9h9L249.8,282H238.3 M278.5,339.7h8.6
	v-25.6h17.5v-7.8h-17.5v-16.6h21.6V282h-30.2V339.7 M318,289.8h15.1v49.9h8.6v-49.9H357V282h-39L318,289.8 M142,332.7
	c-7.4-0.3-10.6-8.2-10.6-21.9c0-13.7,3.2-21.7,10.6-21.7c5.4,0,7.7,2.7,8.1,7.2h8.6c-0.2-10-6.6-15.1-16.5-15.1
	c-13,0-19.8,9.9-19.8,29.6c0,19.8,6.6,29.8,19.5,29.8c11.1,0,17.1-5.8,17.4-16.4l-8.7,0C150.4,329.8,147.4,333,142,332.7
	 M34.9,331.8V290c14.3,0,19,4,19,20.9C54,327.5,49.3,331.8,34.9,331.8z M34.9,282h-8.6v57.7h8.6c19.9,0,27.4-8.9,27.4-28.8
	C62.3,291,54.8,282,34.9,282"/>
  <path class="st0" d="M392.6,282l-4.7,62.8l13.4-18.6l8.8,18.5l8.8-18.5l13.4,18.5L425,282H392.6 M462.3,230.6c-0.2,0-0.4,0-0.6,0.1
	c-0.6-2.4-1.7-4.8-3.1-7c1.4-1.1,2.2-2.7,2.2-4.6c0-3.3-2.7-6-6-6c-1.9,0-3.5,0.9-4.6,2.2c-2-1.4-4.3-2.6-6.7-3.5
	c0.1-0.5,0.2-1,0.2-1.6c0-3.3-2.7-6-6-6c-3.1,0-5.6,2.4-5.9,5.4c-0.1,0-0.2,0-0.2,0c-2.3,0-4.8,0.2-7.3,0.8c-0.7-2.5-3-4.3-5.7-4.3
	c-3.3,0-6,2.7-6,6c0,1,0.3,2,0.7,2.8c-2,1.3-4,2.9-5.9,4.8c-1-0.9-2.3-1.4-3.8-1.4c-3.3,0-6,2.7-6,6c0,2.2,1.2,4.1,3,5.2
	c-1,2.1-2,4.4-2.8,7c-0.5-0.1-1-0.2-1.6-0.2c-3.3,0-6,2.7-6,6c0,3,2.2,5.4,5,5.9c-0.2,1.5-0.4,3-0.6,4.5c-0.3,3.3-0.5,6.7-0.8,10.5
	h28.8c-0.4-3.7-0.8-6.9-1.2-10.4c-1.2-10.2,0-18.1,5-22.3c2.3-1.9,5.5-3.7,9.5-3.7c7.4,0,12.2,6,12.2,12c0,6.7-5.2,11.9-11.2,12.2
	c0,0-0.6,0-0.4,0.4c0.7,1.7,5.2,6.2,13,3.7c0,0,0.3-0.1,0.8-0.3c0.8,1.5,2.3,2.5,4.1,2.5c2.6,0,4.7-2.1,4.7-4.7
	c0-1.3-0.5-2.4-1.3-3.3c1.4-1.7,2.6-3.9,3.4-6.7c0.3,0.1,0.6,0.1,0.9,0.1c3.3,0,6-2.7,6-6C468.3,233.2,465.6,230.6,462.3,230.6
	 M423.4,268.7h-55.3v7.8h56.2L423.4,268.7"/>
</svg>
