<svg xmlns="http://www.w3.org/2000/svg" fill="none" viewBox="0 0 100 100"><path fill="currentColor" d="M63.487 10.848C36.244 5.536 23.227 26.888 22.686 27.8a33.955 33.955 0 0 0-3.335 7.6 32.717 32.717 0 0 0-1.33 7.85c-.113 2.57.09 5.13.6 7.616a29.793 29.793 0 0 0 2.337 6.936 28.515 28.515 0 0 0 3.786 5.893 27.108 27.108 0 0 0 4.897 4.586 25.788 25.788 0 0 0 5.626 3.105c1.93.77 3.928 1.292 5.957 1.564a24.341 24.341 0 0 0 5.904.045c1.892-.227 3.74-.68 5.498-1.352a22.155 22.155 0 0 0 4.8-2.554 21.167 21.167 0 0 0 3.86-3.513 20.67 20.67 0 0 0 2.772-4.178 19.812 19.812 0 0 0 1.608-4.54c.33-1.52.48-3.068.428-4.602a17.83 17.83 0 0 0-.676-4.382 17.193 17.193 0 0 0-1.653-3.92 16.322 16.322 0 0 0-2.449-3.257 15.755 15.755 0 0 0-3.042-2.448 15.396 15.396 0 0 0-3.402-1.564 14.607 14.607 0 0 0-3.53-.65 13.793 13.793 0 0 0-3.44.235c-1.098.211-2.157.559-3.148 1.027a12.758 12.758 0 0 0-2.69 1.7 12.48 12.48 0 0 0-2.102 2.221c-.586.801-1.074 1.662-1.443 2.569a11.66 11.66 0 0 0-.743 2.727 11 11 0 0 0-.053 2.72c.09.877.286 1.73.586 2.546.286.794.676 1.541 1.142 2.23a9.836 9.836 0 0 0 1.585 1.805c.578.514 1.217.96 1.9 1.307.661.347 1.36.604 2.073.77a8.389 8.389 0 0 0 2.118.227 8.652 8.652 0 0 0 2.029-.287 7.778 7.778 0 0 0 3.343-1.881 7.418 7.418 0 0 0 1.156-1.413 7.069 7.069 0 0 0 1.067-3.256c.037-.59.007-1.141-.09-1.647-.587-2.894-3.118-3.438-4.372-3.325a.106.106 0 0 0-.045.016c-.136.015-.278.03-.406.06-.27.06-.526.144-.766.264-.233.114-.45.265-.654.431a2.983 2.983 0 0 0-.856 1.209.753.753 0 1 0 1.405.544 1.588 1.588 0 0 1 .781-.831c.128-.06.27-.114.413-.144.15-.03.308-.045.466-.038.165 0 .33.03.488.084.165.045.33.12.48.211.158.09.309.212.444.34.135.136.263.295.36.46.106.182.196.371.256.575.06.212.098.43.113.65.015.226 0 .468-.053.695a3.05 3.05 0 0 1-.653 1.36c-.173.211-.376.4-.602.566a3.47 3.47 0 0 1-.75.416 3.87 3.87 0 0 1-.88.234 4.034 4.034 0 0 1-.953.015 4.021 4.021 0 0 1-.977-.241 3.875 3.875 0 0 1-.939-.5c-.3-.21-.586-.46-.826-.747a4.799 4.799 0 0 1-.654-.975 4.758 4.758 0 0 1-.413-1.163 5.312 5.312 0 0 1-.127-1.292c.015-.453.082-.907.203-1.352.127-.461.315-.907.548-1.323.248-.43.548-.838.901-1.208.36-.378.774-.71 1.224-.99a6.985 6.985 0 0 1 1.503-.695 7.153 7.153 0 0 1 1.705-.318 7.3 7.3 0 0 1 1.81.114 7.865 7.865 0 0 1 3.508 1.654c.54.439 1.029.952 1.45 1.519a8.908 8.908 0 0 1 1.089 1.919c.293.703.503 1.458.616 2.229.12.793.135 1.609.06 2.425-.083.838-.27 1.67-.564 2.47a10.61 10.61 0 0 1-1.201 2.365 11.174 11.174 0 0 1-1.826 2.093 12.013 12.013 0 0 1-5.22 2.72c-1.022.25-2.08.363-3.155.347a13.19 13.19 0 0 1-3.29-.46c-1.112-.295-2.2-.74-3.222-1.315a14.812 14.812 0 0 1-2.937-2.16 15.612 15.612 0 0 1-2.426-2.955 16.305 16.305 0 0 1-1.713-3.619 16.896 16.896 0 0 1-.811-4.11 18.29 18.29 0 0 1 .218-4.382 19.08 19.08 0 0 1 1.337-4.39 19.414 19.414 0 0 1 2.478-4.102 20.16 20.16 0 0 1 3.553-3.52 21.011 21.011 0 0 1 4.5-2.652 21.862 21.862 0 0 1 5.235-1.534 22.817 22.817 0 0 1 5.701-.204c1.968.174 3.936.597 5.829 1.262 1.953.68 3.83 1.616 5.588 2.78a26.343 26.343 0 0 1 4.958 4.253 27.938 27.938 0 0 1 3.943 5.591 29.195 29.195 0 0 1 2.577 6.68c.6 2.41.909 4.91.909 7.433 0 2.592-.33 5.206-.97 7.767a33.441 33.441 0 0 1-2.959 7.623 34.61 34.61 0 0 1-4.942 6.958 35.922 35.922 0 0 1-6.775 5.78 37.783 37.783 0 0 1-8.338 4.118 39.097 39.097 0 0 1-9.494 2.024c-3.35.287-6.76.16-10.133-.392a42.654 42.654 0 0 1-10.163-3.007 44.927 44.927 0 0 1-9.532-5.66C6.033 72.015.294 58.174 1.714 44.174a.754.754 0 0 0-.669-.83.763.763 0 0 0-.826.672C-1.246 58.535 4.711 72.89 15.768 81.48a46.435 46.435 0 0 0 9.854 5.847 44.516 44.516 0 0 0 10.524 3.113 42.345 42.345 0 0 0 10.5.4c3.38-.294 6.7-1.004 9.856-2.1a39.122 39.122 0 0 0 8.668-4.284 37.867 37.867 0 0 0 7.06-6.021 36.092 36.092 0 0 0 5.153-7.268 34.958 34.958 0 0 0 3.095-7.97 33.306 33.306 0 0 0 1.014-8.138c0-2.652-.323-5.273-.954-7.804a30.579 30.579 0 0 0-2.712-7.026 29.11 29.11 0 0 0-4.16-5.893 27.768 27.768 0 0 0-5.244-4.496 26.8 26.8 0 0 0-5.926-2.946 25.52 25.52 0 0 0-6.197-1.338 24.325 24.325 0 0 0-6.07.22 23.734 23.734 0 0 0-5.595 1.639 22.699 22.699 0 0 0-4.822 2.84 21.616 21.616 0 0 0-3.816 3.786 21.073 21.073 0 0 0-2.667 4.42 20.467 20.467 0 0 0-1.45 4.744 19.438 19.438 0 0 0-.24 4.752c.113 1.534.413 3.038.887 4.48a18.183 18.183 0 0 0 1.87 3.96 17.034 17.034 0 0 0 2.666 3.24c.984.93 2.074 1.73 3.238 2.38a15.336 15.336 0 0 0 3.568 1.451c1.201.325 2.433.491 3.658.506a14.117 14.117 0 0 0 3.522-.393 13.71 13.71 0 0 0 3.185-1.2 13.37 13.37 0 0 0 2.69-1.867 12.84 12.84 0 0 0 2.065-2.372 12.14 12.14 0 0 0 2.013-5.538 11.59 11.59 0 0 0-.068-2.796 11.149 11.149 0 0 0-.713-2.583c-.33-.801-.759-1.557-1.27-2.237a10.384 10.384 0 0 0-1.705-1.79 9.825 9.825 0 0 0-2.005-1.262 9.031 9.031 0 0 0-4.35-.831 8.607 8.607 0 0 0-2.065.385 8.287 8.287 0 0 0-1.833.854 7.847 7.847 0 0 0-2.636 2.735 7.185 7.185 0 0 0-.691 1.67 7.077 7.077 0 0 0-.256 1.722 6.532 6.532 0 0 0 .166 1.67c.12.529.3 1.042.54 1.518a6 6 0 0 0 .864 1.285c.33.377.699.718 1.105.997.398.28.818.499 1.269.665.435.166.886.272 1.337.325.443.045.886.045 1.33-.015.428-.06.84-.166 1.231-.333.308-.128.601-.287.872-.468a5.86 5.86 0 0 1-.639.733 6.061 6.061 0 0 1-1.224.906 6.22 6.22 0 0 1-1.48.605 6.716 6.716 0 0 1-1.66.234 7.22 7.22 0 0 1-1.75-.189 7.61 7.61 0 0 1-3.32-1.745 8.103 8.103 0 0 1-1.337-1.526 8.839 8.839 0 0 1-.97-1.897 9.255 9.255 0 0 1-.502-2.176 9.41 9.41 0 0 1 .045-2.342c.112-.808.33-1.601.646-2.372.323-.786.743-1.541 1.262-2.244a10.768 10.768 0 0 1 1.847-1.95 11.086 11.086 0 0 1 2.374-1.502 11.88 11.88 0 0 1 2.794-.915 12.261 12.261 0 0 1 3.072-.204 13.09 13.09 0 0 1 3.17.582c1.067.333 2.096.809 3.065 1.405.991.612 1.923 1.36 2.749 2.214a15.123 15.123 0 0 1 2.23 2.962c.64 1.11 1.15 2.319 1.51 3.573.369 1.292.579 2.645.617 4.012a17.154 17.154 0 0 1-.399 4.23 18.097 18.097 0 0 1-1.48 4.194 18.493 18.493 0 0 1-2.568 3.868 19.503 19.503 0 0 1-3.59 3.264 20.456 20.456 0 0 1-4.47 2.38 21.136 21.136 0 0 1-5.138 1.262 22.57 22.57 0 0 1-5.528-.038 23.53 23.53 0 0 1-5.596-1.466 24.327 24.327 0 0 1-5.303-2.931 25.652 25.652 0 0 1-4.627-4.33 27.194 27.194 0 0 1-3.59-5.583 28.269 28.269 0 0 1-2.216-6.58 29.465 29.465 0 0 1-.571-7.238 31.24 31.24 0 0 1 1.262-7.487 32.443 32.443 0 0 1 3.185-7.26c.518-.877 13.01-21.344 39.224-16.244 28.941 5.636 35.28 31.104 35.28 40.443 0 .415.339.755.752.755s.751-.34.751-.755c0-9.686-6.557-36.091-36.498-41.924l-.015.008Z"/></svg>
