<svg viewBox="0 0 20 20" fill="none" xmlns="http://www.w3.org/2000/svg">
<path d="M17.3855 9.47998L9.95403 16.9114C9.04362 17.8219 7.80884 18.3333 6.52133 18.3333C5.23381 18.3333 3.99903 17.8219 3.08862 16.9114C2.17821 16.001 1.66675 14.7663 1.66675 13.4787C1.66675 12.1912 2.17821 10.9564 3.08862 10.046L10.5201 2.61457C11.127 2.00763 11.9502 1.66666 12.8086 1.66666C13.6669 1.66666 14.4901 2.00763 15.097 2.61457C15.704 3.22151 16.0449 4.0447 16.0449 4.90304C16.0449 5.76139 15.704 6.58457 15.097 7.19151L7.65748 14.623C7.35401 14.9264 6.94241 15.0969 6.51324 15.0969C6.08407 15.0969 5.67248 14.9264 5.36901 14.623C5.06554 14.3195 4.89505 13.9079 4.89505 13.4787C4.89505 13.0496 5.06554 12.638 5.36901 12.3345L12.2344 5.47718" stroke="currentColor" stroke-width="0.84" stroke-linecap="round" stroke-linejoin="round"/>
</svg>
