<svg xmlns="http://www.w3.org/2000/svg" viewBox="0 0 695.7 695.7"><path fill="#fff" d="M0 0h695.7v695.7H0z"/><path d="M0 347.8V0h695.7v695.7H0Zm388.2 246.8c38.4-7 71-11.6 105-14.8 17.3-1.6 28.3-3.4 41.7-6.7a191.6 191.6 0 0 0 45.8-17.5c3.3-1.9 8.4-5.3 8.7-5.8.2-.3 1.6-281.3 1.4-281.6l-5.3 2.2a301.6 301.6 0 0 1-73 20.3c-6.8 1-15 2-25.2 3A1054.2 1054.2 0 0 0 369 312.4l-1.3.3v285.8l5-1 15.5-2.9zm4-31.2-.2-10.9V547l7.6-1.8c25.8-6.2 46.7-9.8 73.3-12.7a310.9 310.9 0 0 0 78.2-19.2l-.3 11-.4 10.8-4.1 1.6c-19.3 7-43.4 12.2-71.3 15.2a442 442 0 0 0-55 9.6c-5.7 1.3-20.2 5-25.3 6.6l-2.2.6zm0-40-.2-10.9V507l4.6-1.1a579.2 579.2 0 0 1 80.4-14c23.1-2.4 48.9-9 73.6-18.6.5-.1.5 1.1.2 10.7-.2 7.4-.4 11-.7 11.1a303.6 303.6 0 0 1-72.7 16.4 400 400 0 0 0-36.5 5.5 586.3 586.3 0 0 0-43.7 10.3l-4.7 1.4zm0-80-.2-10.8v-5.8l1.3-.3a580.4 580.4 0 0 1 79.4-14.3c13-1.4 20.4-2.6 31.8-5a310.7 310.7 0 0 0 46.4-14l-.1 11-.3 10.7-5.6 2a303 303 0 0 1-68.7 14.6 489.9 489.9 0 0 0-83.6 16.8l-.4-5zm0-41.7c-.1-3.7-.2-8.6-.1-11v-4l6.2-1.6c26-6.3 48.7-10.2 78.4-13.5 13-1.4 24-3.4 38-7a317.4 317.4 0 0 0 36.1-11.4c.2 0 .1 5 0 10.8-.2 9.3-.3 10.7-.8 11a311.5 311.5 0 0 1-74.3 16.5 478.5 478.5 0 0 0-82.9 16.7c-.3.2-.4-1.5-.6-6.5zm0-38.7-.2-10.8v-5.6l2.5-.6c28.4-7 51.8-11.1 81.5-14.3a293.3 293.3 0 0 0 75-18.9l-.2 11-.4 11-3.6 1.3a302.6 302.6 0 0 1-68.7 15c-18.8 2-36.4 5-56.4 9.6-7 1.6-21.5 5.3-27 6.9l-2.2.7zM344 454.7V311.8l-5-1c-29.2-5.8-60.9-11-86-14-8.3-1.1-18.8-2.2-32.8-3.6a323.2 323.2 0 0 1-98-24.2l-2.5-1.1v15.3a83632 83632 0 0 0 1.4 266.6c1.5 1.8 13.6 8.5 21.7 12 22.8 9.7 47 15.4 76.7 18A1245.2 1245.2 0 0 1 343 597.5h1zM254.4 550c-4.3-.7-8.6-2-13.2-4l-3.8-1.5-10.3-.3a61.1 61.1 0 0 1-19-2.1c-10-3.3-26-17.9-36.5-33.4-1.7-2.4-2.8-3.7-3.3-3.9-.5 0-8-.3-16.8-.4-8.8-.1-16.4-.4-16.8-.5-1.3-.5-1.8-1.8-3-7.7a112 112 0 0 1 4.4-69l.6-1.2h3l19 .7 16 .6 2.7-2.8c8.8-9.6 19.5-20.8 25.2-26.5a190 190 0 0 1 23.5-19.7c6.4-4.8 7.7-6.4 9.6-11.9 2-5.7 3.4-15.3 4-26.8l.5-8.5c.2-1.6 1.7-3 3.5-3.5 5-1.4 16 5.3 22.8 13.8 5.6 7 8.9 14.5 9.7 22.6.8 6.5-.6 15.7-3.6 24.4a109.5 109.5 0 0 1-19.4 32.9l1.8.5c6.4 1.5 13.3 4.2 24 9.5a153.8 153.8 0 0 1 27 16.4 62 62 0 0 1 10.5 11c5.4 9.2 4.4 18.1-3 25.7l-2.9 3 .6 1.4c1.2 2.7.3 10.7-1.7 14.4-1.4 2.9-6 6.8-9.6 8.3-1 .4-1.1.6-1 1.7.6 3.1-3.2 11.8-6.4 15-2.1 2.2-5.8 4-9.9 5l-3.1.8v1.9c0 2.2-.7 4.1-2.5 6.8-3.3 5.3-7.5 7.3-15.4 7.6a37 37 0 0 1-7.2-.3zm13-8a7.6 7.6 0 0 0 3.3-3c1.7-2.5 1.9-3.3 1-3.8l-4.5-1c-5.2-.6-8.8-1.5-14.9-3.9a197.8 197.8 0 0 1-33.1-16c-.2 0-1 .7-1.7 1.5a7.7 7.7 0 0 0-2.5 5.5c0 1.2.2 1.6 1 2.5a113 113 0 0 0 22 12.8c11.2 5.5 15.5 6.7 23.1 6.5 3.9-.1 4.4-.2 6.3-1.1zm-45.6-5.3a26 26 0 0 0-3-2.1c-4-2.4-8.3-6-9.5-7.6-2.9-4.2-1.7-11.2 2.8-16.2l1.5-1.6-1-1.5c-.8-1.3-1-1.9-1-4.7-.3-5.2 1.3-9 5.6-13.3l2-2.2v-2.3c-.3-6.8 4-13.2 11.7-17.6l1.8-1V465c0-2.5 1.1-6.8 2.5-9.4 4.3-8 15.8-12 26.5-9.1a85 85 0 0 1 15.7 6.5c3.7 1.9 10 5.5 10.5 6 .1.1-.8 1.5-2 3.1l-2.1 3-2.9-2a104 104 0 0 0-17.6-8.5c-6.8-2.3-10.8-2.4-15.9-.5a12.2 12.2 0 0 0-7.3 10c-.2 1.7-.1 1.8 1.2 3 3.4 3.2 13 7.6 32.3 14.6 10.7 4 12.7 4.5 18.6 4.5 5.5 0 8-.6 11.5-2.6 7.8-4.6 10.8-12 7.6-18.8-3.8-8-16.2-17.2-36.4-27.1a91.2 91.2 0 0 0-28.5-10c-.6 0-1-.8-1.8-3.1-1.3-3.4-1.4-2.9 1.4-6 7.5-8.4 15.7-21.7 19.2-31.2a67.1 67.1 0 0 0 3.7-15c1.2-11-2.2-20.4-10.6-28.8-3-3-8-6.7-10-7.5-1-.3-1-.3-1.1 1.5l-.6 7.4a87.1 87.1 0 0 1-6.7 30.2 27 27 0 0 1-8.4 8.5c-1.6 1-6 4.4-10 7.5-9.2 7.2-15.8 13.8-42.2 42.2l-1.4 1.5-13.9-.5-18.2-.8-4.2-.2-1.2 4a102.6 102.6 0 0 0-2 55l.8 4.6 13.4.3 17 .5 3.5.2 3.5 5.2a108 108 0 0 0 29.3 30c3.8 2.1 5.9 2.8 10.7 3.4 4.7.6 5.4.6 5.2.3zm57-10c3.6-.7 7.5-2.3 8.7-3.8 1-1.1 3-5.2 3.8-7.3l.5-1.4-2 .3a65 65 0 0 1-19.2-.1c-2.5-.6-14.7-4.9-21.4-7.5-10.3-4.1-19.2-8.7-23.4-12-1-.8-2-1.4-2.3-1.3-.7.3-3.3 3.7-4 5.3-.5.8-.7 2.2-.7 3.4 0 2 0 2.1 1.9 3.8 6 5.7 32.6 18 43.8 20.4 4 .8 10.1.9 14.3.2zm5.5-19c6.5-.6 9-1.2 12.6-2.9 3.3-1.6 5.5-3.5 6.3-5.2.5-1.2 1.5-6 1.5-7.2 0-.7-.1-.7-1.1-.5l-2 .4-2.5.4c-4.6 1-11.5.8-17-.6-3-.7-15.4-5.2-24-8.6a125 125 0 0 1-21.3-10.6c-.2 0-1.4.6-2.5 1.3-4.6 2.5-7.4 6-7.8 9.6-.1 1.7 0 2 .8 3 3.3 3.9 17.4 10.8 34.7 17 11.8 4.3 13.8 4.7 22.3 3.9zm78.3-218a1154.3 1154.3 0 0 1 77-14.1 143.8 143.8 0 0 0 4.6-61.6c-6.4-43.8-33.7-77.3-69-84.5a76 76 0 0 0-27 0c-29.7 6.2-55 31-68.8 67.7-5 13-8.2 27-9.9 42.7-.9 8-.4 28.5.7 34l.3 1.3 4.1.6a1386.1 1386.1 0 0 1 83 14.8l5-1zm-11.8-11.6c-9.2-2-18.4-11-25.2-24.3l-1.9-3.6 2.1 2c6.1 5.5 13.5 10 20.5 12.2a57 57 0 0 0 17.9 2c7.2 0 11.4-.3 17.5-1.5l3.6-.5c.3.3-4 4.5-6.2 6.3a39.8 39.8 0 0 1-16 7.3c-3 .6-10 .6-12.3.1zm42.5-38.3c-4.1-1.6-6.7-6.9-6.6-13.8a23 23 0 0 1 5.3-15c2.1-2.4 4.1-3.4 6.4-3.4 2.3 0 3.7.6 5.3 2.5 4.3 5 4.7 14.8 1 22.5-2.8 5.6-7.6 8.6-11.4 7.2zm-75.8-10.4c-4.7-.8-8-7.2-7.5-14.9.3-4 1-6.7 2.5-10 1.5-3 3.4-5.2 5.8-6.5 1.5-.8 2-1 4-.8 2.6.2 4.2 1.2 6 4a18 18 0 0 1 2 10.8c-.2 6-2 10.7-5.2 14.2-2.4 2.7-5 3.7-7.6 3.2z" style="fill:#339"/></svg>
