<svg xmlns="http://www.w3.org/2000/svg" viewBox="0 0 696.866 696.866">
    <defs>
        <clipPath id="a">
            <path d="M540.24 756.961h-58.351v-58.352h58.351v58.352z"/>
        </clipPath>
        <clipPath id="b">
            <path d="M481.889 756.961h56.693v-56.693h-56.693v56.693z"/>
        </clipPath>
        <clipPath id="c">
            <path d="M0 842h594V1H0v841z"/>
        </clipPath>
        <clipPath id="d">
            <path d="M.03 841.98h595.02V0H.03v841.98z"/>
        </clipPath>
    </defs>
    <g clip-path="url(#a)" transform="matrix(12.29193 0 0 -12.29193 -5923.345 9304.51)">
        <g clip-path="url(#b)">
            <g clip-path="url(#c)">
                <g clip-path="url(#d)">
                    <path d="M482.496 700.26h56.094v56.094h-56.094V700.26z"
                          style="fill:#333399;fill-opacity:1;fill-rule:nonzero;stroke:none"/>
                    <path d="M539.633 699.216h-57.137v57.138h57.137v-57.138z"
                          style="fill:none;stroke:#333399;stroke-width:1.21399999;stroke-linecap:butt;stroke-linejoin:miter;stroke-miterlimit:4;stroke-opacity:1;stroke-dasharray:none"/>
                    <path d="M0 0c-.031-.02-3.185-2.062-8.857-2.577a68.9 68.9 0 0 1-2.126-.227c.092.381.17.766.232 1.156.989 6.268-2.448 11.696-7.299 12.461-4.849.767-9.306-3.414-10.298-9.682a14.501 14.501 0 0 1-.085-3.909c-.644.075-1.299.143-1.96.202-5.802.515-9.028 2.56-9.06 2.581l-1.249.806.005-1.486.107-25.063.056-.141c.452-1.14 4.459-3.133 9.469-3.539 4.81-.388 10.269-1.473 11.314-1.686l.317-.065.169.066c1.027.214 6.394 1.3 11.07 1.685 4.914.406 8.844 2.403 9.287 3.544l.054.139L1.257.829 0 0"
                          style="fill:#fff;fill-opacity:1;fill-rule:nonzero;stroke:#333399;stroke-width:1.60000002"
                          transform="translate(530.553 737.384)"/>
                    <path d="M0 0s.991-1.097 2.354-1.296c1.45-.21 2.74.146 2.74.146-.314-.45-1.283-1.299-2.621-1.205C.912-2.245 0 0 0 0"
                          style="fill:#333399;fill-opacity:1;fill-rule:nonzero;stroke:none"
                          transform="translate(508.256 736.596)"/>
                    <path d="M0 0c-.116-.739-.581-1.279-1.037-1.207-.454.072-.729.729-.612 1.466.116.738.58 1.277 1.035 1.205C-.158 1.393.116.737 0 0"
                          style="fill:#333399;fill-opacity:1;fill-rule:nonzero;stroke:none"
                          transform="translate(508.811 739.441)"/>
                    <path d="M0 0c-.117-.738-.581-1.279-1.036-1.206-.454.072-.73.728-.613 1.466.116.738.58 1.277 1.035 1.205C-.159 1.394.116.737 0 0"
                          style="fill:#333399;fill-opacity:1;fill-rule:nonzero;stroke:none"
                          transform="translate(515.061 738.586)"/>
                    <path d="M0 0c-3.456-.327-6.642-1.18-6.777-1.216l.042-1.78c.032.009 3.571 1.078 6.887 1.392C3.66-1.272 6.067-.289 6.169-.248l.056 1.808C6.203 1.55 3.254.308 0 0"
                          style="fill:#333399;fill-opacity:1;fill-rule:nonzero;stroke:none"
                          transform="translate(520.589 729.929)"/>
                    <path d="M0 0c-3.456-.328-6.642-1.181-6.777-1.216l.042-1.78c.032.008 3.571 1.077 6.887 1.391C3.66-1.272 6.067-.29 6.169-.248l.056 1.807C6.203 1.55 3.254.308 0 0"
                          style="fill:#333399;fill-opacity:1;fill-rule:nonzero;stroke:none"
                          transform="translate(520.589 726.664)"/>
                    <path d="M0 0c-3.456-.328-6.642-1.181-6.777-1.217l.042-1.779c.032.008 3.571 1.077 6.887 1.391C3.66-1.272 6.067-.29 6.169-.249l.056 1.807C6.203 1.549 3.254.308 0 0"
                          style="fill:#333399;fill-opacity:1;fill-rule:nonzero;stroke:none"
                          transform="translate(520.589 723.399)"/>
                    <path d="M0 0c-3.456-.328-6.642-1.181-6.777-1.217l.042-1.779c.032.009 3.571 1.077 6.887 1.391C3.66-1.272 6.067-.29 6.169-.248l.056 1.807C6.203 1.55 3.254.308 0 0"
                          style="fill:#333399;fill-opacity:1;fill-rule:nonzero;stroke:none"
                          transform="translate(520.589 716.868)"/>
                    <path d="M0 0c-3.456-.328-6.642-1.181-6.777-1.217l.042-1.779c.032.008 3.571 1.077 6.887 1.391C3.66-1.272 6.067-.29 6.169-.248l.056 1.806C6.203 1.549 3.254.308 0 0"
                          style="fill:#333399;fill-opacity:1;fill-rule:nonzero;stroke:none"
                          transform="translate(520.589 713.603)"/>
                    <path d="M0 0c-.581-.536-3.446-2.162-7.863-2.527-4.088-.338-8.656-1.191-10.538-1.566V19.51c1.436.313 5.704 1.191 10.152 1.594 4.044.366 6.849 1.441 8.346 2.159L0 0zm-38.517.005-.1 23.27c1.518-.717 4.39-1.803 8.545-2.172 4.245-.376 8.334-1.168 10.051-1.526V-4.032c-2.072.399-6.462 1.183-10.45 1.505-4.518.366-7.448 1.994-8.046 2.532zm12.233 26.158c.852 5.386 4.478 8.962 8.445 8.336 3.969-.627 6.801-5.224 5.951-10.61a13.361 13.361 0 0 0-.374-1.64 93.565 93.565 0 0 1-6.787-1.233c-.744.164-3.679.79-7.261 1.28a12.8 12.8 0 0 0 .026 3.867zm26.748-.878c-.031-.02-3.185-2.062-8.858-2.577a72.437 72.437 0 0 1-2.125-.227c.091.381.169.766.231 1.155.99 6.269-2.447 11.697-7.298 12.462-4.85.767-9.307-3.414-10.298-9.682a14.469 14.469 0 0 1-.085-3.91c-.644.075-1.3.144-1.961.203-5.801.514-9.028 2.56-9.059 2.58l-1.25.807.005-1.486.108-25.063.056-.141c.451-1.14 4.459-3.134 9.469-3.539 4.809-.388 10.268-1.473 11.314-1.686l.317-.066.168.067c1.028.214 6.394 1.3 11.071 1.685 4.913.406 8.844 2.402 9.287 3.544l.054.139.111 26.564-1.257-.829"
                          style="fill:#333399;fill-opacity:1;fill-rule:nonzero;stroke:#333399;stroke-width:.32031497;stroke-miterlimit:4;stroke-dasharray:none"
                          transform="translate(530.095 712.094)"/>
                    <path d="M0 0c-.275-.103-.938-.268-1.834.076l-.475.174c-1.716.619-2.628 1.059-2.719 1.31.078.837.591.976 1.103 1.032.548.062 1.841-.543 2.459-1.006l.367.49c-.183.137-1.926 1.232-2.894 1.126-1.021-.114-1.57-.647-1.649-1.607-.004-.05.01-.097.019-.145-.348-.158-1.16-.624-1.114-1.575.002-.037.013-.076.024-.115-.321-.27-.788-.792-.631-1.493a.731.731 0 0 1 .161-.288c-.313-.278-.584-.706-.451-1.264.067-.283.546-.636 1.151-.983-.433.023-.83.074-1.029.166-1.582.731-2.864 2.869-2.878 2.891l-.085.145-2.414.063-.342-.013c-.12.536-.311 1.564-.311 2.426 0 .084.002.167.006.246a8.976 8.976 0 0 0 .496 2.5l2.957-.112.096.104c.021.024 2.19 2.395 2.945 3.056l1.083.848c.456.284.751.563.861.737.3.474.598 1.518.665 3.335.5-.185 1.772-1.155 1.772-2.583 0-2.072-1.749-4.023-2.099-4.393l.194-.515c.008-.001.808-.081 1.721-.499C-.011 2.839.728 1.942.849 1.417c.02-.088.03-.172.03-.252C.879.53.307.157 0 0zm.13-1.186c-.086-.299-.561-.511-.862-.61-.388-.075-1.24-.204-1.815-.017-2.121.693-3.509 1.435-3.579 1.724-.034.705.812 1.009.857 1.024.473-.385 1.392-.77 2.752-1.26l.464-.17C-1.158-.839-.435-.758-.001-.64l.013-.027c.017.005.039.02.056.027l.153.055c.004-.018.007-.016.007-.059 0-.096-.019-.263-.098-.542zm-2.046-2.262-.002.006c-.007-.001-.678-.161-1.541.133-1.337.456-3.172 1.368-3.289 1.711-.081.365.186.68.396.864.706-.615 2.26-1.218 3.615-1.661.616-.201 1.421-.12 1.915-.039-.015-.084-.068-.264-.281-.624-.133-.224-.482-.336-.813-.39zm-.712-1.124c-.261-.31-1.268-.29-2.123.105l.004.009-.246.115c-.016.01-.035.017-.052.027l-.079.048-.025-.002c-.895.432-1.788.946-1.897 1.148-.074.317.137.551.322.691 1.047-.745 3.041-1.448 3.068-1.457a3.885 3.885 0 0 1 1.08-.206l-.001-.009c.073-.009.157-.047.171-.069 0-.001.019-.113-.222-.4zm4.12 5.733c0 .125-.015.256-.047.394-.223.971-1.544 1.997-4.036 3.136a6.765 6.765 0 0 1-1.364.455c.706.83 1.906 2.498 1.906 4.395 0 1.867-1.789 3.221-2.515 3.269-.287.019-.441-.157-.466-.341l-.007-.155c-.076-2.435-.467-3.021-.578-3.197a4.166 4.166 0 0 0-.668-.546l-1.163-.905c-.703-.617-2.486-2.551-2.897-2.999l-3.105.116-.083-.194c-.021-.051-.535-1.277-.617-2.902-.065-1.307.369-3.059.374-3.076.073-.284.332-.268.89-.227l2.058-.053c.33-.518 1.534-2.284 3.057-2.989.628-.29 2.133-.245 2.493-.229.092-.044.185-.088.276-.129l.003.007c1.014-.47 2.324-.566 2.837.044.244.289.367.552.367.787 0 .046-.016.088-.026.132l.047.009c.443.078.947.247 1.197.667.251.425.374.748.374.997 0 .046-.029.077-.038.119.377.162.824.434.957.899.061.213.122.47.122.707a.806.806 0 0 1-.113.412c.403.32.765.776.765 1.397"
                          style="fill:#333399;fill-opacity:1;fill-rule:nonzero;stroke:none"
                          transform="translate(506.477 717.474)"/>
                </g>
            </g>
        </g>
    </g>
</svg>
