<svg xmlns="http://www.w3.org/2000/svg" fill="none" viewBox="0 0 20 20"><path stroke="currentColor" stroke-linecap="round" stroke-linejoin="round" stroke-width=".84" d="M3.333 17.733V2.267a.6.6 0 0 1 .6-.6h9.568a.6.6 0 0 1 .425.175l2.565 2.566a.6.6 0 0 1 .176.424v12.901a.6.6 0 0 1-.6.6H3.933a.6.6 0 0 1-.6-.6Z"/><path fill="currentColor" stroke="currentColor" stroke-linecap="round" stroke-linejoin="round" stroke-width=".84" d="M13.333 4.4V1.961a.295.295 0 0 1 .503-.208l2.744 2.744a.295.295 0 0 1-.208.503h-2.439a.6.6 0 0 1-.6-.6Z"/><path stroke="currentColor" stroke-linecap="round" stroke-linejoin="round" stroke-width=".84" d="M6.667 8.333h6.666M6.667 15h6.666M6.667 11.667H10"/></svg>
