<svg
  width="88"
  height="41"
  viewBox="0 0 88 41"
  fill="none"
  xmlns="http://www.w3.org/2000/svg"
>
  <path
    d="M59.3999 16.0439C59.3999 24.8799 44.3999 40.0439 44.3999 40.0439C44.3999 40.0439 29.3999 24.8799 29.3999 16.0439C29.3999 11.8005 30.9803 7.73082 33.7933 4.73024C36.6063 1.72965 40.4217 0.0439453 44.3999 0.0439453C48.3781 0.0439453 52.1935 1.72965 55.0065 4.73024C57.8195 7.73082 59.3999 11.8005 59.3999 16.0439Z"
    fill="#1E4557"
  />
  <path
    d="M44.3999 22.0439C46.2564 22.0439 48.0369 21.3064 49.3496 19.9937C50.6624 18.6809 51.3999 16.9005 51.3999 15.0439C51.3999 13.1874 50.6624 11.407 49.3496 10.0942C48.0369 8.78144 46.2564 8.04395 44.3999 8.04395C42.5434 8.04395 40.7629 8.78144 39.4502 10.0942C38.1374 11.407 37.3999 13.1874 37.3999 15.0439C37.3999 16.9005 38.1374 18.6809 39.4502 19.9937C40.7629 21.3064 42.5434 22.0439 44.3999 22.0439Z"
    fill="white"
  />
</svg>
