<svg xmlns="http://www.w3.org/2000/svg" fill="none" viewBox="0 0 15 10"><path stroke="currentColor" stroke-linecap="round" stroke-linejoin="round" stroke-width=".7" d="m6.176 3 2.912 2L12 3M2.294 6h1.294M1 4h2.588"/><path stroke="currentColor" stroke-linecap="round" stroke-width=".7" d="M4 2.429v-.286c0-.303.124-.594.345-.808.22-.215.52-.335.831-.335h7.647c.313 0 .612.12.832.335.221.214.345.505.345.808v5.714c0 .303-.124.594-.345.808-.22.215-.52.335-.832.335H5.176c-.312 0-.61-.12-.831-.335A1.127 1.127 0 0 1 4 7.857v-.286"/></svg>
