<svg xmlns="http://www.w3.org/2000/svg" width="20" height="20">
  <defs>
    <mask id="threads_mask">
      <rect width="100%" height="100%" fill="#fff"/>
      <path fill="#000" d="M12.434 9.635a3.525 3.525 0 0 0-.134-.06c-.078-1.422-.869-2.236-2.196-2.245h-.018c-.793 0-1.454.334-1.86.94l.73.492c.303-.453.78-.55 1.13-.55h.013c.437.004.767.128.98.372.155.177.26.423.31.732a5.678 5.678 0 0 0-1.254-.06c-1.262.072-2.073.796-2.018 1.8.027.51.286.95.727 1.236.374.242.854.361 1.354.334.66-.035 1.178-.283 1.539-.736.274-.343.448-.789.524-1.35.315.187.548.432.677.727.218.502.231 1.327-.453 1.999-.6.589-1.32.844-2.41.852-1.208-.01-2.122-.39-2.716-1.133-.556-.695-.844-1.7-.854-2.985.01-1.286.298-2.29.854-2.985.594-.743 1.508-1.124 2.716-1.133 1.217.01 2.147.392 2.764 1.138.302.366.53.826.68 1.363l.856-.225a4.523 4.523 0 0 0-.86-1.701C12.726 5.5 11.569 5.01 10.079 5h-.006c-1.487.01-2.63.502-3.399 1.462-.683.855-1.036 2.044-1.048 3.534v.008c.012 1.49.365 2.679 1.048 3.534.768.96 1.912 1.452 3.4 1.462h.005c1.322-.009 2.254-.35 3.022-1.104 1.005-.986.974-2.223.643-2.982-.237-.545-.69-.987-1.31-1.28Zm-2.283 2.11c-.553.03-1.128-.213-1.156-.736-.021-.388.28-.82 1.19-.872.104-.006.206-.008.306-.008.33 0 .64.031.92.091-.104 1.287-.719 1.496-1.26 1.525Z"/>
    </mask>
  </defs>
  <path fill="currentColor" d="M2.5 10a7.5 7.5 0 1 1 15 0 7.5 7.5 0 0 1-15 0Z" mask="url(#threads_mask)"/>
</svg>
