<svg viewBox="0 0 79 76" fill="none" xmlns="http://www.w3.org/2000/svg">
    <circle cx="37.5" cy="38.5" r="37" fill="url(#paint0_radial_3241_64905)" stroke="url(#paint1_linear_3241_64905)"/>
    <g opacity="0.5" filter="url(#filter0_f_3241_64905)">
        <path d="M70.3462 38.0649C70.3462 44.4375 62.8462 65.3597 39.4808 67.7766C22.75 69.5072 11.5 60.3028 11.5 53.9303C11.5 47.5577 28.5353 42.1035 42.0769 42.1035C55.6185 42.1035 70.3462 31.6924 70.3462 38.0649Z" fill="#B6EDFA"/>
    </g>
    <g opacity="0.4" filter="url(#filter1_f_3241_64905)">
        <path d="M48.6867 17.5001C63.2986 23.6809 38.9896 22.5168 38.4239 46.0001C38.0189 62.8152 55.0078 66.3285 48.6867 65.5204C40.8069 64.5128 9.49839 44.6235 11.2156 31.1912C12.9329 17.7589 42.3657 16.692 48.6867 17.5001Z" fill="#E6BDFF"/>
    </g>
    <g opacity="0.58" filter="url(#filter2_f_3241_64905)">
        <path d="M28.5463 41.1899C45.2887 41.1899 48.173 34.4613 48.173 34.4613C52.2119 20.9038 48.7722 10.6355 52.2119 16C56.4996 22.6875 71.2615 43.1407 59.862 50.45C48.4625 57.7593 28.5463 52.0576 28.5463 41.1899Z" fill="#CBFACE"/>
    </g>
    <g opacity="0.2" filter="url(#filter3_i_3241_64905)">
        <circle cx="37.5" cy="38.5" r="37.5" fill="#F2FDFF" fill-opacity="0.01"/>
    </g>
    <g filter="url(#filter4_f_3241_64905)">
        <path d="M61.7759 42.0075C59.8933 56.2318 46.836 66.2367 32.6117 64.3541C18.3874 62.4714 8.38254 49.4142 10.2652 35.1899C12.1478 20.9656 28.2625 49.8858 42.4868 51.7684C56.711 53.6511 63.6585 27.7832 61.7759 42.0075Z" fill="url(#paint2_radial_3241_64905)"/>
    </g>
    <g filter="url(#filter5_f_3241_64905)">
        <path d="M11.9949 47.5825C12.7025 34.1108 24.1971 23.7635 37.6687 24.4711C51.1404 25.1787 61.4877 36.6733 60.7801 50.1449C60.0725 63.6166 42.8201 37.7084 29.3485 37.0008C15.8768 36.2932 11.2873 61.0541 11.9949 47.5825Z" fill="url(#paint3_radial_3241_64905)"/>
    </g>
    <g opacity="0.65" filter="url(#filter6_f_3241_64905)">
        <path d="M46.7535 34.5913C47.4611 21.1197 -1.43569 19.806 26.4921 18.7108C39.9638 19.4184 40.3422 46.8571 39.6346 60.3287C37.7182 69.9118 40.7298 56.19 27.8612 50.7456C6.50457 41.7101 44.0155 46.3648 46.7535 34.5913Z" fill="white"/>
    </g>
    <g opacity="0.85" filter="url(#filter7_f_3241_64905)">
        <path d="M54.9721 22.8356C65.4809 30.8768 67.4812 45.9145 59.44 56.4233C51.3988 66.9321 36.3611 68.9324 25.8523 60.8912C15.3436 52.85 45.8727 53.253 53.9139 42.7443C61.9551 32.2355 44.4633 14.7944 54.9721 22.8356Z" fill="url(#paint4_radial_3241_64905)"/>
    </g>
    <g opacity="0.88" filter="url(#filter8_f_3241_64905)">
        <path d="M18.3874 59.2887C6.57539 49.0639 5.2887 31.1995 15.5135 19.3875C25.7383 7.57551 43.6027 6.28883 55.4147 16.5136C67.2267 26.7384 31.2768 24.0897 21.052 35.9017C10.8272 47.7137 30.1994 69.5135 18.3874 59.2887Z" fill="url(#paint5_radial_3241_64905)"/>
    </g>
    <g opacity="0.75">
        <g opacity="0.5" filter="url(#filter9_i_3241_64905)">
            <circle cx="37.5" cy="38.5" r="37.5" fill="#F2F7F3" fill-opacity="0.01"/>
        </g>
    </g>
    <g opacity="0.9" filter="url(#filter10_f_3241_64905)">
        <path d="M41.5 15C32.8079 18.4807 29.2774 14.923 22.5 18.5C12.1154 23.9809 6.92285 40.6531 6.92285 36.1922C6.92285 31.7314 8.36516 17.1538 24.8075 8.78853C41.2498 0.423274 50.1921 11.5193 41.5 15Z" fill="white" fill-opacity="0.82"/>
    </g>
    <g opacity="0.7" filter="url(#filter11_f_3241_64905)">
        <path d="M61.9954 27.1392C57.613 22.8901 60.1774 25.3555 56.1785 21.579C53.879 19.4074 51.6538 17.356 51.6182 16.2504C51.5825 15.1448 51.2573 13.6811 55.5711 13.6767C65.4474 16.3756 66.3778 31.3883 61.9954 27.1392Z" fill="white" fill-opacity="0.88"/>
    </g>
    <defs>
        <filter id="filter0_f_3241_64905" x="3.5" y="28" width="74.8462" height="47.9894" filterUnits="userSpaceOnUse" color-interpolation-filters="sRGB">
            <feFlood flood-opacity="0" result="BackgroundImageFix"/>
            <feBlend mode="normal" in="SourceGraphic" in2="BackgroundImageFix" result="shape"/>
            <feGaussianBlur stdDeviation="4" result="effect1_foregroundBlur_3241_64905"/>
        </filter>
        <filter id="filter1_f_3241_64905" x="6.14746" y="12.2984" width="52.207" height="58.3289" filterUnits="userSpaceOnUse" color-interpolation-filters="sRGB">
            <feFlood flood-opacity="0" result="BackgroundImageFix"/>
            <feBlend mode="normal" in="SourceGraphic" in2="BackgroundImageFix" result="shape"/>
            <feGaussianBlur stdDeviation="2.5" result="effect1_foregroundBlur_3241_64905"/>
        </filter>
        <filter id="filter2_f_3241_64905" x="20.5464" y="6.54965" width="51.5488" height="55.1806" filterUnits="userSpaceOnUse" color-interpolation-filters="sRGB">
            <feFlood flood-opacity="0" result="BackgroundImageFix"/>
            <feBlend mode="normal" in="SourceGraphic" in2="BackgroundImageFix" result="shape"/>
            <feGaussianBlur stdDeviation="4" result="effect1_foregroundBlur_3241_64905"/>
        </filter>
        <filter id="filter3_i_3241_64905" x="-7" y="-7" width="82" height="83" filterUnits="userSpaceOnUse" color-interpolation-filters="sRGB">
            <feFlood flood-opacity="0" result="BackgroundImageFix"/>
            <feBlend mode="normal" in="SourceGraphic" in2="BackgroundImageFix" result="shape"/>
            <feColorMatrix in="SourceAlpha" type="matrix" values="0 0 0 0 0 0 0 0 0 0 0 0 0 0 0 0 0 0 127 0" result="hardAlpha"/>
            <feMorphology radius="2" operator="erode" in="SourceAlpha" result="effect1_innerShadow_3241_64905"/>
            <feOffset dx="-7" dy="-8"/>
            <feGaussianBlur stdDeviation="8"/>
            <feComposite in2="hardAlpha" operator="arithmetic" k2="-1" k3="1"/>
            <feColorMatrix type="matrix" values="0 0 0 0 0.165174 0 0 0 0 0.591667 0 0 0 0 0.284891 0 0 0 1 0"/>
            <feBlend mode="normal" in2="shape" result="effect1_innerShadow_3241_64905"/>
        </filter>
        <filter id="filter4_f_3241_64905" x="9.9376" y="31.1699" width="52.241" height="33.5117" filterUnits="userSpaceOnUse" color-interpolation-filters="sRGB">
            <feFlood flood-opacity="0" result="BackgroundImageFix"/>
            <feBlend mode="normal" in="SourceGraphic" in2="BackgroundImageFix" result="shape"/>
            <feGaussianBlur stdDeviation="0.05" result="effect1_foregroundBlur_3241_64905"/>
        </filter>
        <filter id="filter5_f_3241_64905" x="10.9248" y="23.4369" width="50.8896" height="31.5847" filterUnits="userSpaceOnUse" color-interpolation-filters="sRGB">
            <feFlood flood-opacity="0" result="BackgroundImageFix"/>
            <feBlend mode="normal" in="SourceGraphic" in2="BackgroundImageFix" result="shape"/>
            <feGaussianBlur stdDeviation="0.5" result="effect1_foregroundBlur_3241_64905"/>
        </filter>
        <filter id="filter6_f_3241_64905" x="14.8677" y="15.7108" width="34.8936" height="50.9295" filterUnits="userSpaceOnUse" color-interpolation-filters="sRGB">
            <feFlood flood-opacity="0" result="BackgroundImageFix"/>
            <feBlend mode="normal" in="SourceGraphic" in2="BackgroundImageFix" result="shape"/>
            <feGaussianBlur stdDeviation="1.5" result="effect1_foregroundBlur_3241_64905"/>
        </filter>
        <filter id="filter7_f_3241_64905" x="23.1758" y="20.2809" width="41.6968" height="46.043" filterUnits="userSpaceOnUse" color-interpolation-filters="sRGB">
            <feFlood flood-opacity="0" result="BackgroundImageFix"/>
            <feBlend mode="normal" in="SourceGraphic" in2="BackgroundImageFix" result="shape"/>
            <feGaussianBlur stdDeviation="0.25" result="effect1_foregroundBlur_3241_64905"/>
        </filter>
        <filter id="filter8_f_3241_64905" x="8.21328" y="9.21322" width="49.9558" height="53.1292" filterUnits="userSpaceOnUse" color-interpolation-filters="sRGB">
            <feFlood flood-opacity="0" result="BackgroundImageFix"/>
            <feBlend mode="normal" in="SourceGraphic" in2="BackgroundImageFix" result="shape"/>
            <feGaussianBlur stdDeviation="0.2" result="effect1_foregroundBlur_3241_64905"/>
        </filter>
        <filter id="filter9_i_3241_64905" x="0" y="1" width="82" height="81" filterUnits="userSpaceOnUse" color-interpolation-filters="sRGB">
            <feFlood flood-opacity="0" result="BackgroundImageFix"/>
            <feBlend mode="normal" in="SourceGraphic" in2="BackgroundImageFix" result="shape"/>
            <feColorMatrix in="SourceAlpha" type="matrix" values="0 0 0 0 0 0 0 0 0 0 0 0 0 0 0 0 0 0 127 0" result="hardAlpha"/>
            <feOffset dx="7" dy="6"/>
            <feGaussianBlur stdDeviation="8.1"/>
            <feComposite in2="hardAlpha" operator="arithmetic" k2="-1" k3="1"/>
            <feColorMatrix type="matrix" values="0 0 0 0 0.866667 0 0 0 0 0.92549 0 0 0 0 0.870588 0 0 0 1 0"/>
            <feBlend mode="normal" in2="shape" result="effect1_innerShadow_3241_64905"/>
        </filter>
        <filter id="filter10_f_3241_64905" x="1.92285" y="0.734131" width="47.9609" height="41.2079" filterUnits="userSpaceOnUse" color-interpolation-filters="sRGB">
            <feFlood flood-opacity="0" result="BackgroundImageFix"/>
            <feBlend mode="normal" in="SourceGraphic" in2="BackgroundImageFix" result="shape"/>
            <feGaussianBlur stdDeviation="2.5" result="effect1_foregroundBlur_3241_64905"/>
        </filter>
        <filter id="filter11_f_3241_64905" x="48.5991" y="10.6767" width="18.895" height="20.2149" filterUnits="userSpaceOnUse" color-interpolation-filters="sRGB">
            <feFlood flood-opacity="0" result="BackgroundImageFix"/>
            <feBlend mode="normal" in="SourceGraphic" in2="BackgroundImageFix" result="shape"/>
            <feGaussianBlur stdDeviation="1.5" result="effect1_foregroundBlur_3241_64905"/>
        </filter>
        <radialGradient id="paint0_radial_3241_64905" cx="0" cy="0" r="1" gradientUnits="userSpaceOnUse" gradientTransform="translate(37.5 38.5) rotate(89.493) scale(56.5022 66.9846)">
            <stop offset="0.124" stop-color="#DDECDE"/>
            <stop offset="0.394328" stop-color="#DDECDE"/>
            <stop offset="0.99" stop-color="#B8D6BE"/>
        </radialGradient>
        <linearGradient id="paint1_linear_3241_64905" x1="-37" y1="-43.5" x2="75.5" y2="79.5" gradientUnits="userSpaceOnUse">
            <stop stop-color="#DDECDE"/>
            <stop offset="0.53483" stop-color="#E8F2E9"/>
            <stop offset="1" stop-color="#DDECDE"/>
        </linearGradient>
        <radialGradient id="paint2_radial_3241_64905" cx="0" cy="0" r="1" gradientUnits="userSpaceOnUse" gradientTransform="translate(36.5 36.0001) rotate(115.641) scale(41.5963 53.0644)">
            <stop offset="0.266873" stop-color="#DDECDE"/>
            <stop offset="0.494" stop-color="#C991EC"/>
            <stop offset="0.719741" stop-color="#DDECDE"/>
        </radialGradient>
        <radialGradient id="paint3_radial_3241_64905" cx="0" cy="0" r="1" gradientUnits="userSpaceOnUse" gradientTransform="translate(36.4874 51.5401) rotate(-75.2564) scale(33.1666 43.9451)">
            <stop offset="0.292548" stop-color="#E8DAF4"/>
            <stop offset="0.634" stop-color="#C196DC"/>
            <stop offset="0.999" stop-color="#E8DAF4"/>
        </radialGradient>
        <radialGradient id="paint4_radial_3241_64905" cx="0" cy="0" r="1" gradientUnits="userSpaceOnUse" gradientTransform="translate(39.8589 39.0411) rotate(48.4747) scale(31.3019 41.7632)">
            <stop offset="0.206865" stop-color="#DDECDE"/>
            <stop offset="0.594" stop-color="#32AF55"/>
            <stop offset="1" stop-color="#96DAA3"/>
        </radialGradient>
        <radialGradient id="paint5_radial_3241_64905" cx="0" cy="0" r="1" gradientUnits="userSpaceOnUse" gradientTransform="translate(36.5 39.5001) rotate(-123.864) scale(45.763 51.5101)">
            <stop offset="0.184645" stop-color="#E8DAF4"/>
            <stop offset="0.46896" stop-color="#61CDEF"/>
            <stop offset="0.670922" stop-color="#E8DAF4"/>
        </radialGradient>
    </defs>
</svg>
