<svg width="79" height="76" viewBox="0 0 79 76" fill="none" xmlns="http://www.w3.org/2000/svg">
  <circle cx="37.5" cy="37.7656" r="37" fill="url(#paint0_radial_2992_2126)"
    stroke="url(#paint1_linear_2992_2126)" />
  <g opacity="0.5" filter="url(#filter0_f_2992_2126)">
    <path
      d="M70.3462 37.3306C70.3462 43.7031 62.8462 64.6253 39.4808 67.0422C22.75 68.7728 11.5 59.5684 11.5 53.1959C11.5 46.8234 28.5353 41.3692 42.0769 41.3692C55.6185 41.3692 70.3462 30.958 70.3462 37.3306Z"
      fill="#B6EDFA" />
  </g>
  <g opacity="0.4" filter="url(#filter1_f_2992_2126)">
    <path
      d="M48.6867 16.7656C63.2986 22.9464 38.9896 21.7824 38.4239 45.2656C38.0189 62.0808 55.0078 65.5941 48.6867 64.786C40.8069 63.7783 9.49839 43.889 11.2156 30.4567C12.9329 17.0245 42.3657 15.9575 48.6867 16.7656Z"
      fill="#E6BDFF" />
  </g>
  <g opacity="0.58" filter="url(#filter2_f_2992_2126)">
    <path
      d="M28.5454 40.4557C45.2877 40.4557 48.172 33.7271 48.172 33.7271C52.2109 20.1696 48.7712 9.90131 52.2109 15.2658C56.4986 21.9533 71.2606 42.4064 59.8611 49.7158C48.4616 57.0251 28.5454 51.3234 28.5454 40.4557Z"
      fill="#CBFACE" />
  </g>
  <g opacity="0.2" filter="url(#filter3_i_2992_2126)">
    <circle cx="37.5" cy="37.7656" r="37.5" fill="#F2FDFF" fill-opacity="0.01" />
  </g>
  <g filter="url(#filter4_f_2992_2126)">
    <path
      d="M61.7769 41.2733C59.8942 55.4976 46.837 65.5025 32.6127 63.6199C18.3884 61.7372 8.38352 48.68 10.2662 34.4557C12.1488 20.2314 28.2634 49.1516 42.4877 51.0342C56.712 52.9169 63.6595 27.049 61.7769 41.2733Z"
      fill="url(#paint2_radial_2992_2126)" />
  </g>
  <g filter="url(#filter5_f_2992_2126)">
    <path
      d="M11.9949 46.848C12.7025 33.3764 24.1971 23.0291 37.6687 23.7367C51.1404 24.4443 61.4877 35.9388 60.7801 49.4105C60.0725 62.8822 42.8201 36.974 29.3485 36.2663C15.8768 35.5587 11.2873 60.3197 11.9949 46.848Z"
      fill="url(#paint3_radial_2992_2126)" />
  </g>
  <g opacity="0.65" filter="url(#filter6_f_2992_2126)">
    <path
      d="M46.7544 33.8571C47.4621 20.3855 -1.43471 19.0718 26.4931 17.9766C39.9647 18.6842 40.3432 46.1229 39.6356 59.5945C37.7191 69.1776 40.7308 55.4558 27.8622 50.0114C6.50555 40.976 44.0164 45.6306 46.7544 33.8571Z"
      fill="white" />
  </g>
  <g opacity="0.85" filter="url(#filter7_f_2992_2126)">
    <path
      d="M54.9731 22.1014C65.4818 30.1426 67.4822 45.1803 59.441 55.6891C51.3998 66.1979 36.3621 68.1982 25.8533 60.157C15.3445 52.1158 45.8737 52.5188 53.9149 42.0101C61.9561 31.5013 44.4643 14.0602 54.9731 22.1014Z"
      fill="url(#paint4_radial_2992_2126)" />
  </g>
  <g opacity="0.88" filter="url(#filter8_f_2992_2126)">
    <path
      d="M18.3874 58.5542C6.57539 48.3294 5.2887 30.4651 15.5135 18.6531C25.7383 6.84108 43.6027 5.55439 55.4147 15.7792C67.2267 26.004 31.2768 23.3553 21.052 35.1673C10.8272 46.9793 30.1994 68.779 18.3874 58.5542Z"
      fill="url(#paint5_radial_2992_2126)" />
  </g>
  <g opacity="0.75">
    <g opacity="0.5" filter="url(#filter9_i_2992_2126)">
      <circle cx="37.5" cy="37.7656" r="37.5" fill="#F2F7F3" fill-opacity="0.01" />
    </g>
  </g>
  <g opacity="0.9" filter="url(#filter10_f_2992_2126)">
    <path
      d="M41.499 14.2659C32.8069 17.7466 29.2764 14.1889 22.499 17.7659C12.1144 23.2467 6.92188 39.9189 6.92188 35.4581C6.92188 30.9973 8.36418 16.4196 24.8065 8.0544C41.2488 -0.310857 50.1911 10.7852 41.499 14.2659Z"
      fill="white" fill-opacity="0.82" />
  </g>
  <g opacity="0.7" filter="url(#filter11_f_2992_2126)">
    <path
      d="M61.9959 26.4051C57.6135 22.1559 60.1779 24.6213 56.179 20.8449C53.8795 18.6732 51.6543 16.6218 51.6186 15.5162C51.583 14.4106 51.2578 12.947 55.5716 12.9426C65.4479 15.6415 66.3783 30.6542 61.9959 26.4051Z"
      fill="white" fill-opacity="0.88" />
  </g>
  <defs>
    <filter id="filter0_f_2992_2126" x="3.5" y="27.2656" width="74.8457" height="47.9893"
      filterUnits="userSpaceOnUse" color-interpolation-filters="sRGB">
      <feFlood flood-opacity="0" result="BackgroundImageFix" />
      <feBlend mode="normal" in="SourceGraphic" in2="BackgroundImageFix" result="shape" />
      <feGaussianBlur stdDeviation="4" result="effect1_foregroundBlur_2992_2126" />
    </filter>
    <filter id="filter1_f_2992_2126" x="6.14844" y="11.564" width="52.207" height="58.3291"
      filterUnits="userSpaceOnUse" color-interpolation-filters="sRGB">
      <feFlood flood-opacity="0" result="BackgroundImageFix" />
      <feBlend mode="normal" in="SourceGraphic" in2="BackgroundImageFix" result="shape" />
      <feGaussianBlur stdDeviation="2.5" result="effect1_foregroundBlur_2992_2126" />
    </filter>
    <filter id="filter2_f_2992_2126" x="20.5449" y="5.81543" width="51.5488" height="55.1807"
      filterUnits="userSpaceOnUse" color-interpolation-filters="sRGB">
      <feFlood flood-opacity="0" result="BackgroundImageFix" />
      <feBlend mode="normal" in="SourceGraphic" in2="BackgroundImageFix" result="shape" />
      <feGaussianBlur stdDeviation="4" result="effect1_foregroundBlur_2992_2126" />
    </filter>
    <filter id="filter3_i_2992_2126" x="-7" y="-7.73438" width="82" height="83"
      filterUnits="userSpaceOnUse" color-interpolation-filters="sRGB">
      <feFlood flood-opacity="0" result="BackgroundImageFix" />
      <feBlend mode="normal" in="SourceGraphic" in2="BackgroundImageFix" result="shape" />
      <feColorMatrix in="SourceAlpha" type="matrix"
        values="0 0 0 0 0 0 0 0 0 0 0 0 0 0 0 0 0 0 127 0" result="hardAlpha" />
      <feMorphology radius="2" operator="erode" in="SourceAlpha"
        result="effect1_innerShadow_2992_2126" />
      <feOffset dx="-7" dy="-8" />
      <feGaussianBlur stdDeviation="8" />
      <feComposite in2="hardAlpha" operator="arithmetic" k2="-1" k3="1" />
      <feColorMatrix type="matrix"
        values="0 0 0 0 0.165174 0 0 0 0 0.591667 0 0 0 0 0.284891 0 0 0 1 0" />
      <feBlend mode="normal" in2="shape" result="effect1_innerShadow_2992_2126" />
    </filter>
    <filter id="filter4_f_2992_2126" x="9.93906" y="30.4356" width="52.241" height="33.512"
      filterUnits="userSpaceOnUse" color-interpolation-filters="sRGB">
      <feFlood flood-opacity="0" result="BackgroundImageFix" />
      <feBlend mode="normal" in="SourceGraphic" in2="BackgroundImageFix" result="shape" />
      <feGaussianBlur stdDeviation="0.05" result="effect1_foregroundBlur_2992_2126" />
    </filter>
    <filter id="filter5_f_2992_2126" x="10.9258" y="22.7026" width="50.8887" height="31.5845"
      filterUnits="userSpaceOnUse" color-interpolation-filters="sRGB">
      <feFlood flood-opacity="0" result="BackgroundImageFix" />
      <feBlend mode="normal" in="SourceGraphic" in2="BackgroundImageFix" result="shape" />
      <feGaussianBlur stdDeviation="0.5" result="effect1_foregroundBlur_2992_2126" />
    </filter>
    <filter id="filter6_f_2992_2126" x="14.8691" y="14.9766" width="34.8926" height="50.9297"
      filterUnits="userSpaceOnUse" color-interpolation-filters="sRGB">
      <feFlood flood-opacity="0" result="BackgroundImageFix" />
      <feBlend mode="normal" in="SourceGraphic" in2="BackgroundImageFix" result="shape" />
      <feGaussianBlur stdDeviation="1.5" result="effect1_foregroundBlur_2992_2126" />
    </filter>
    <filter id="filter7_f_2992_2126" x="23.1758" y="19.5469" width="41.6973" height="46.043"
      filterUnits="userSpaceOnUse" color-interpolation-filters="sRGB">
      <feFlood flood-opacity="0" result="BackgroundImageFix" />
      <feBlend mode="normal" in="SourceGraphic" in2="BackgroundImageFix" result="shape" />
      <feGaussianBlur stdDeviation="0.25" result="effect1_foregroundBlur_2992_2126" />
    </filter>
    <filter id="filter8_f_2992_2126" x="8.21328" y="8.47891" width="49.9563" height="53.1291"
      filterUnits="userSpaceOnUse" color-interpolation-filters="sRGB">
      <feFlood flood-opacity="0" result="BackgroundImageFix" />
      <feBlend mode="normal" in="SourceGraphic" in2="BackgroundImageFix" result="shape" />
      <feGaussianBlur stdDeviation="0.2" result="effect1_foregroundBlur_2992_2126" />
    </filter>
    <filter id="filter9_i_2992_2126" x="0" y="0.265625" width="82" height="81"
      filterUnits="userSpaceOnUse" color-interpolation-filters="sRGB">
      <feFlood flood-opacity="0" result="BackgroundImageFix" />
      <feBlend mode="normal" in="SourceGraphic" in2="BackgroundImageFix" result="shape" />
      <feColorMatrix in="SourceAlpha" type="matrix"
        values="0 0 0 0 0 0 0 0 0 0 0 0 0 0 0 0 0 0 127 0" result="hardAlpha" />
      <feOffset dx="7" dy="6" />
      <feGaussianBlur stdDeviation="8.1" />
      <feComposite in2="hardAlpha" operator="arithmetic" k2="-1" k3="1" />
      <feColorMatrix type="matrix"
        values="0 0 0 0 0.866667 0 0 0 0 0.92549 0 0 0 0 0.870588 0 0 0 1 0" />
      <feBlend mode="normal" in2="shape" result="effect1_innerShadow_2992_2126" />
    </filter>
    <filter id="filter10_f_2992_2126" x="1.92188" y="0" width="47.9609" height="41.208"
      filterUnits="userSpaceOnUse" color-interpolation-filters="sRGB">
      <feFlood flood-opacity="0" result="BackgroundImageFix" />
      <feBlend mode="normal" in="SourceGraphic" in2="BackgroundImageFix" result="shape" />
      <feGaussianBlur stdDeviation="2.5" result="effect1_foregroundBlur_2992_2126" />
    </filter>
    <filter id="filter11_f_2992_2126" x="48.5996" y="9.94238" width="18.8945" height="20.2153"
      filterUnits="userSpaceOnUse" color-interpolation-filters="sRGB">
      <feFlood flood-opacity="0" result="BackgroundImageFix" />
      <feBlend mode="normal" in="SourceGraphic" in2="BackgroundImageFix" result="shape" />
      <feGaussianBlur stdDeviation="1.5" result="effect1_foregroundBlur_2992_2126" />
    </filter>
    <radialGradient id="paint0_radial_2992_2126" cx="0" cy="0" r="1" gradientUnits="userSpaceOnUse"
      gradientTransform="translate(37.5 37.7656) rotate(89.493) scale(56.5022 66.9846)">
      <stop offset="0.124" stop-color="#DDECDE" />
      <stop offset="0.394328" stop-color="#DDECDE" />
      <stop offset="0.99" stop-color="#B8D6BE" />
    </radialGradient>
    <linearGradient id="paint1_linear_2992_2126" x1="-37" y1="-44.2344" x2="75.5" y2="78.7656"
      gradientUnits="userSpaceOnUse">
      <stop stop-color="#DDECDE" />
      <stop offset="0.53483" stop-color="#E8F2E9" />
      <stop offset="1" stop-color="#DDECDE" />
    </linearGradient>
    <radialGradient id="paint2_radial_2992_2126" cx="0" cy="0" r="1" gradientUnits="userSpaceOnUse"
      gradientTransform="translate(36.501 35.2659) rotate(115.641) scale(41.5963 53.0644)">
      <stop offset="0.266873" stop-color="#DDECDE" />
      <stop offset="0.494" stop-color="#C991EC" />
      <stop offset="0.719741" stop-color="#DDECDE" />
    </radialGradient>
    <radialGradient id="paint3_radial_2992_2126" cx="0" cy="0" r="1" gradientUnits="userSpaceOnUse"
      gradientTransform="translate(36.4874 50.8057) rotate(-75.2564) scale(33.1666 43.9451)">
      <stop offset="0.292548" stop-color="#E8DAF4" />
      <stop offset="0.634" stop-color="#C196DC" />
      <stop offset="0.999" stop-color="#E8DAF4" />
    </radialGradient>
    <radialGradient id="paint4_radial_2992_2126" cx="0" cy="0" r="1" gradientUnits="userSpaceOnUse"
      gradientTransform="translate(39.8599 38.3069) rotate(48.4747) scale(31.3019 41.7632)">
      <stop offset="0.206865" stop-color="#DDECDE" />
      <stop offset="0.594" stop-color="#32AF55" />
      <stop offset="1" stop-color="#96DAA3" />
    </radialGradient>
    <radialGradient id="paint5_radial_2992_2126" cx="0" cy="0" r="1" gradientUnits="userSpaceOnUse"
      gradientTransform="translate(36.5 38.7656) rotate(-123.864) scale(45.763 51.5101)">
      <stop offset="0.184645" stop-color="#E8DAF4" />
      <stop offset="0.46896" stop-color="#61CDEF" />
      <stop offset="0.670922" stop-color="#E8DAF4" />
    </radialGradient>
  </defs>
</svg>