<svg xmlns="http://www.w3.org/2000/svg" fill="none" viewBox="0 0 20 34"><path fill="currentColor" d="M7.497 17.892h9.388c.235 3.254 3.063 15.924 3.063 15.924s-3.271-2.926-4.763-4.498c-.832 1.572-2.926 4.498-2.926 4.498s-2.153-2.962-3.064-4.498c-1.598 1.608-4.763 4.498-4.763 4.498s2.833-13.065 3.063-15.924h.002ZM4.714 11.015C2.36 11.472-.164 9.645.008 6.48.181 3.312 2.897.61 6.48.084c3.149-.465 6.745.995 8.38 4.595 1.02 2.249 1.014 4.625 1.387 7.02H8.48c.116-.48.433-1.836.521-3.144.175-2.598-1.752-3.996-3.388-3.81-1.515.171-2.35 1.235-2.402 2.219-.03.58.24 1.352.963 1.427.431.046.865-.266.894-.67.024-.333-.3-.633-.559-.633-.211 0-.357.172-.476.338-.153-.395.267-1.46 1.3-1.513.923-.047 1.945.79 2.027 1.97.11 1.566-.994 2.813-2.647 3.132ZM17.608 16.174H7.078a.593.593 0 0 0-.603.587c0 .325.326.586.657.586h10.42c.333 0 .656-.261.656-.586a.593.593 0 0 0-.601-.587h.001ZM16.951 12.217H7.422c-.333 0-.657.261-.657.586 0 .325.269.586.602.586h9.64a.593.593 0 0 0 .601-.586c0-.325-.325-.586-.657-.586ZM18.271 13.877H6.373c-.502 0-.965.395-.965.884s.463.884.965.884h11.898c.502 0 .965-.395.965-.884s-.463-.884-.965-.884Z"/></svg>
