<svg width="20" height="20" viewBox="0 0 20 20" fill="none" xmlns="http://www.w3.org/2000/svg">
<g clip-path="url(#clip0_3076_1605)">
<path d="M15 16.6667C15.5523 16.6667 16 16.219 16 15.6667C16 15.1145 15.5523 14.6667 15 14.6667C14.4477 14.6667 14 15.1145 14 15.6667C14 16.219 14.4477 16.6667 15 16.6667Z" fill="white" stroke="white" stroke-width="1.5" stroke-linecap="round" stroke-linejoin="round"/>
<path d="M7.33398 16.6667C7.88627 16.6667 8.33398 16.219 8.33398 15.6667C8.33398 15.1145 7.88627 14.6667 7.33398 14.6667C6.7817 14.6667 6.33398 15.1145 6.33398 15.6667C6.33398 16.219 6.7817 16.6667 7.33398 16.6667Z" fill="white" stroke="white" stroke-width="1.5" stroke-linecap="round" stroke-linejoin="round"/>
<path d="M5.33398 4.66659H16.6673L15.334 11.9999H6.66732L5.33398 4.66659ZM5.33398 4.66659C5.22287 4.22214 4.66732 3.33325 3.33398 3.33325" stroke="white" stroke-width="2" stroke-linecap="round" stroke-linejoin="round"/>
</g>
<defs>
<clipPath id="clip0_3076_1605">
<rect width="16" height="16" fill="white" transform="translate(2 2)"/>
</clipPath>
</defs>
</svg>
