<svg xmlns="http://www.w3.org/2000/svg" fill="none" viewBox="0 0 40 40"><path fill="currentColor" d="M27.644 27.079a8.613 8.613 0 0 0 1.711-.58c3.156-1.441 5.17-4.62 5.145-8.114l-.025-3.84a2.43 2.43 0 0 0-2.432-2.422 2.416 2.416 0 0 0-2.194 1.452l-2.25-5.002a2.406 2.406 0 0 0-3.197-1.219c-.287.132-.534.31-.74.529a2.405 2.405 0 0 0-2.86-.666 2.437 2.437 0 0 0-1.389 2.605 2.488 2.488 0 0 0-.88.214 2.443 2.443 0 0 0-1.405 2.473l2.034.889-.363-.808a.819.819 0 0 1 .403-1.076.8.8 0 0 1 1.067.406l1.093 2.443.513.223.02.01c.644.29 1.248.64 1.807 1.041l-1.973-4.382-.665-1.483a.819.819 0 0 1 .403-1.077.8.8 0 0 1 1.067.406l.665 1.478 1.993 4.444c.181.406.66.589 1.067.406a.816.816 0 0 0 .403-1.077l-1.998-4.438a.819.819 0 0 1 .402-1.077.8.8 0 0 1 1.068.407l3.599 8.013c.156.35.533.538.906.457a.813.813 0 0 0 .634-.797l-.015-2.346a.812.812 0 0 1 .8-.818c.443-.005.81.36.81.808l.026 3.844c.02 2.849-1.626 5.449-4.203 6.622a6.223 6.223 0 0 1-.7.274c-.065.61-.181 1.209-.347 1.783v-.005ZM17.103 16.008l3.478 1.559a7.22 7.22 0 0 1 4.249 6.592c0 3.986-3.202 7.216-7.153 7.216h-6.54a.811.811 0 0 1-.805-.813c0-.447.358-.812.806-.812h3.222a.811.811 0 0 0 .805-.813.811.811 0 0 0-.805-.812H9.527a.811.811 0 0 1-.805-.813c0-.447.362-.812.805-.812h4.833a.811.811 0 0 0 .805-.813.811.811 0 0 0-.805-.812H7.916a.811.811 0 0 1-.805-.813c0-.447.362-.812.805-.812h6.444a.811.811 0 0 0 .805-.813.811.811 0 0 0-.805-.813H9.527a.811.811 0 0 1-.805-.812c0-.447.362-.813.805-.813h8.719a.81.81 0 0 0 .79-.644.803.803 0 0 0-.463-.91l-2.125-.954c-.407-.183-.588-.66-.407-1.072.181-.411.654-.594 1.062-.411Zm-8.21 13.655c-.111.28-.171.584-.171.9A2.428 2.428 0 0 0 11.138 33h6.539c4.842 0 8.764-3.956 8.764-8.841a8.847 8.847 0 0 0-5.205-8.08l-3.479-1.56a2.407 2.407 0 0 0-3.191 1.24 2.456 2.456 0 0 0 .408 2.615H9.527a2.428 2.428 0 0 0-2.416 2.438c0 .315.06.62.171.899A2.434 2.434 0 0 0 5.5 24.062c0 1.122.755 2.072 1.782 2.351-.11.28-.171.584-.171.9 0 1.122.755 2.071 1.782 2.35Z"/></svg>
