<svg xmlns="http://www.w3.org/2000/svg" viewBox="-1 -1 22 22"><path d="M18.52 0H1.48C.67 0 0 .64 0 1.43v17.14C0 19.36.67 20 1.48 20h17.04c.81 0 1.48-.64 1.48-1.43V1.43C20 .64 19.33 0 18.52 0H18.52zM6.06 16.75H3.04V7.7h3.02V16.75zM4.56 6.47h-.03c-1.02 0-1.67-.69-1.67-1.56 0-.88.67-1.56 1.7-1.56 1.04 0 1.67.68 1.7 1.56 0 .87-.66 1.56-1.7 1.56zM16.96 16.75h-3.02v-4.83c0-1.21-.44-2.04-1.52-2.04-.83 0-1.33.56-1.56 1.1-.08.19-.09.46-.09.73v5.04H7.73s.04-8.18 0-9.03h3.02v1.28a3 3 0 0 1 2.72-1.5c1.98 0 3.47 1.3 3.47 4.09v5.16z" fill="currentColor"/></svg>
