<svg viewBox="0 0 10 12" fill="none" xmlns="http://www.w3.org/2000/svg">
<path d="M9.00016 5.00008C9.00016 7.20913 5.00008 11.0002 5.00008 11.0002C5.00008 11.0002 1 7.20913 1 5.00008C1 3.93919 1.42144 2.92176 2.1716 2.1716C2.92176 1.42144 3.93919 1 5.00008 1C6.06097 1 7.07841 1.42144 7.82857 2.1716C8.57873 2.92176 9.00016 3.93919 9.00016 5.00008Z" stroke="currentColor" stroke-width="0.7"/>
<path d="M4.99977 5.50002C5.13238 5.50002 5.25956 5.44734 5.35333 5.35357C5.4471 5.2598 5.49978 5.13262 5.49978 5.00001C5.49978 4.8674 5.4471 4.74022 5.35333 4.64645C5.25956 4.55268 5.13238 4.5 4.99977 4.5C4.86716 4.5 4.73998 4.55268 4.64621 4.64645C4.55244 4.74022 4.49976 4.8674 4.49976 5.00001C4.49976 5.13262 4.55244 5.2598 4.64621 5.35357C4.73998 5.44734 4.86716 5.50002 4.99977 5.50002Z" fill="white" stroke="currentColor" stroke-width="0.841667" stroke-linecap="round" stroke-linejoin="round"/>
</svg>
