<svg viewBox="44.9 44.9 83.2 83.2" fill="none" xmlns="http://www.w3.org/2000/svg"
     style="filter: drop-shadow(0px 0px 3px rgb(0 0 0 / 0.4));">
<g>
<path d="M123 86.5C123 96.1804 119.154 105.464 112.309 112.309C105.464 119.154 96.1804 123 86.5 123C76.8196 123 67.5357 119.154 60.6906 112.309C53.8455 105.464 50 96.1804 50 86.5C50 76.8196 53.8455 67.5357 60.6906 60.6906C67.5357 53.8455 76.8196 50 86.5 50C96.1804 50 105.464 53.8455 112.309 60.6906C119.154 67.5357 123 76.8196 123 86.5ZM80.9794 73.2368C80.6383 72.9939 80.2369 72.8497 79.8192 72.8197C79.4016 72.7898 78.9837 72.8754 78.6115 73.0672C78.2392 73.259 77.927 73.5495 77.7089 73.907C77.4908 74.2644 77.3753 74.675 77.375 75.0938V97.9062C77.3753 98.325 77.4908 98.7356 77.7089 99.093C77.927 99.4505 78.2392 99.741 78.6115 99.9328C78.9837 100.125 79.4016 100.21 79.8192 100.18C80.2369 100.15 80.6383 100.006 80.9794 99.7632L96.9481 88.3569C97.2438 88.1459 97.4849 87.8673 97.6512 87.5443C97.8175 87.2213 97.9043 86.8633 97.9043 86.5C97.9043 86.1367 97.8175 85.7787 97.6512 85.4557C97.4849 85.1327 97.2438 84.8541 96.9481 84.6431L80.9794 73.2368Z" fill="white"/>
</g>
</svg>
