<svg viewBox="0 0 20 20" fill="none" xmlns="http://www.w3.org/2000/svg">
<path d="M2.5 14.1667H17.5M5 8.33333V3C5 2.86739 5.05268 2.74021 5.14645 2.64645C5.24021 2.55268 5.36739 2.5 5.5 2.5H14.5C14.6326 2.5 14.7598 2.55268 14.8536 2.64645C14.9473 2.74021 15 2.86739 15 3V8.33333M17.5 17V11.6667C17.5 10.7826 17.1488 9.93476 16.5237 9.30964C15.8986 8.68452 15.0507 8.33333 14.1667 8.33333H5.83333C4.94928 8.33333 4.10143 8.68452 3.47631 9.30964C2.85119 9.93476 2.5 10.7826 2.5 11.6667V17C2.5 17.1326 2.55268 17.2598 2.64645 17.3536C2.74021 17.4473 2.86739 17.5 3 17.5H17C17.1326 17.5 17.2598 17.4473 17.3536 17.3536C17.4473 17.2598 17.5 17.1326 17.5 17Z" stroke="currentColor" stroke-width="0.841667"/>
<path d="M14.1667 10.8417L14.1751 10.8325" stroke="currentColor" stroke-width="0.841667" stroke-linecap="round" stroke-linejoin="round"/>
</svg>
