<svg xmlns="http://www.w3.org/2000/svg" viewBox="0 0 20 20" fill="none"><path fill="currentColor" d="M8.152 13.106v-.257c.005-.882.084-1.584.235-2.108.156-.524.383-.947.68-1.27a5.208 5.208 0 0 1 1.073-.876c.312-.202.592-.41.838-.627.247-.217.444-.456.59-.718.146-.267.219-.564.219-.892a1.67 1.67 0 0 0-.25-.914 1.66 1.66 0 0 0-.672-.604 2.002 2.002 0 0 0-.922-.212 2.05 2.05 0 0 0-.93.22 1.774 1.774 0 0 0-.717.634c-.186.277-.287.622-.302 1.035H4.91c.025-1.008.267-1.839.725-2.493A4.155 4.155 0 0 1 7.457 2.55c.756-.327 1.59-.491 2.501-.491 1.003 0 1.89.166 2.66.499.77.327 1.375.803 1.813 1.428.439.624.658 1.377.658 2.259 0 .59-.099 1.113-.295 1.572-.191.453-.46.856-.808 1.208a6.264 6.264 0 0 1-1.232.945 4.995 4.995 0 0 0-.982.74c-.252.257-.441.555-.567.892-.12.337-.184.753-.189 1.247v.257zM9.65 17.94c-.504 0-.935-.176-1.293-.529a1.738 1.738 0 0 1-.52-1.284 1.705 1.705 0 0 1 .52-1.27 1.774 1.774 0 0 1 1.293-.528c.478 0 .899.176 1.261.529.363.352.547.775.552 1.269a1.757 1.757 0 0 1-.265.914 1.952 1.952 0 0 1-.657.658c-.272.16-.57.241-.891.241z"/></svg>
