<svg viewBox="0 0 20 20" fill="none" xmlns="http://www.w3.org/2000/svg">
<path d="M8.94751 12.6348V12.3779C8.95254 11.4963 9.03062 10.7937 9.18174 10.2698C9.33789 9.74591 9.56457 9.32279 9.86176 9.0004C10.159 8.67802 10.5166 8.38586 10.9347 8.12393C11.247 7.92244 11.5266 7.71339 11.7734 7.49679C12.0202 7.28019 12.2167 7.04093 12.3627 6.77899C12.5088 6.51202 12.5819 6.21482 12.5819 5.8874C12.5819 5.53983 12.4987 5.23508 12.3325 4.97315C12.1663 4.71121 11.9421 4.50972 11.66 4.36868C11.383 4.22764 11.0757 4.15712 10.7382 4.15712C10.4108 4.15712 10.101 4.23016 9.80887 4.37624C9.51671 4.51728 9.27744 4.72884 9.09107 5.01093C8.90469 5.28797 8.80394 5.63302 8.78883 6.04607H5.70605C5.73124 5.03863 5.97303 4.20749 6.43141 3.55265C6.8898 2.89278 7.49679 2.40165 8.25237 2.07926C9.00795 1.75184 9.84161 1.58813 10.7533 1.58813C11.7558 1.58813 12.6423 1.75436 13.413 2.08682C14.1837 2.41424 14.7882 2.89026 15.2264 3.51487C15.6646 4.13949 15.8838 4.89255 15.8838 5.77406C15.8838 6.36342 15.7855 6.88729 15.5891 7.34568C15.3977 7.79903 15.1282 8.202 14.7806 8.55461C14.433 8.90218 14.0225 9.217 13.549 9.49909C13.1511 9.73584 12.8236 9.98266 12.5667 10.2396C12.3149 10.4965 12.126 10.7937 12.0001 11.1311C11.8792 11.4686 11.8162 11.8842 11.8112 12.3779V12.6348H8.94751ZM10.4436 17.4705C9.93984 17.4705 9.50916 17.2942 9.15151 16.9416C8.79891 16.5839 8.62512 16.1558 8.63016 15.6571C8.62512 15.1634 8.79891 14.7403 9.15151 14.3877C9.50916 14.0351 9.93984 13.8588 10.4436 13.8588C10.9221 13.8588 11.3427 14.0351 11.7054 14.3877C12.0681 14.7403 12.2519 15.1634 12.257 15.6571C12.2519 15.9895 12.1638 16.2943 11.9925 16.5713C11.8263 16.8434 11.6072 17.0625 11.3351 17.2287C11.0631 17.3899 10.7659 17.4705 10.4436 17.4705Z" fill="currentColor"/>
</svg>