<svg viewBox="0 0 20 20" fill="none" xmlns="http://www.w3.org/2000/svg">
<path d="M12.9167 12.9167L15.8334 15.8333M4.16675 9.16667C4.16675 9.82328 4.29608 10.4735 4.54735 11.0801C4.79862 11.6867 5.16692 12.2379 5.63121 12.7022C6.09551 13.1665 6.6467 13.5348 7.25333 13.7861C7.85996 14.0373 8.51014 14.1667 9.16675 14.1667C9.82336 14.1667 10.4735 14.0373 11.0802 13.7861C11.6868 13.5348 12.238 13.1665 12.7023 12.7022C13.1666 12.2379 13.5349 11.6867 13.7861 11.0801C14.0374 10.4735 14.1667 9.82328 14.1667 9.16667C14.1667 7.84059 13.64 6.56882 12.7023 5.63114C11.7646 4.69346 10.4928 4.16667 9.16675 4.16667C7.84067 4.16667 6.5689 4.69346 5.63121 5.63114C4.69353 6.56882 4.16675 7.84059 4.16675 9.16667Z" stroke="currentColor" stroke-width="2" stroke-linecap="round" stroke-linejoin="round"/>
</svg>
